<?xml version="1.0" encoding="UTF-8"?><svg id="b" xmlns="http://www.w3.org/2000/svg" viewBox="0 0 232.7 195.6"><g id="c"><path d="M226.1,79.2c-1.1-1.4-2.3-2.7-3.6-3.9L160.2,10.5c-7.2-9.2-20.5-10.8-29.8-3.6-9.2,7.2-10.8,20.5-3.6,29.8l48.2,75.9h0c.8,1.5,1.8,3,2.9,4.5,10.4,13.3,29.7,15.6,43,5.2,13.3-10.4,15.6-29.7,5.2-43Z" style="fill:#ffc09f;"/><path d="M102.2,6.9c-9.2-7.2-22.5-5.6-29.8,3.6L10.2,75.3c-1.3,1.2-2.5,2.5-3.6,3.9-10.4,13.3-8.1,32.6,5.2,43,13.3,10.4,32.6,8.1,43-5.2,1.1-1.4,2.1-2.9,2.9-4.5h0l48.2-75.9c7.2-9.2,5.6-22.5-3.6-29.8Z" style="fill:#ffc09f;"/><path d="M12.2,83.6c-8,10.2-6.2,24.9,4,32.9,10.2,8,24.9,6.2,32.9-4" style="fill:none; stroke:#ffe7d9; stroke-miterlimit:10;"/><path d="M185.8,78c0-8-2.4-15.4-6.6-21.5C175.8,24.7,149,0,116.3,0s-61.1,26.3-63.1,59.4c-3.1,5.5-4.8,11.8-4.8,18.6,0,19.4,14.4,35.4,33.2,38,10,6.6,21.9,10.4,34.7,10.4s24.5-3.7,34.4-10.2c19.6-1.6,35.1-18.1,35.1-38.2Z" style="fill:#ffe7d9;"/><path d="M107.8,59.2c4.7,0,8.6,3.8,8.6,8.6s-3.8,8.6-8.6,8.6-8.6-3.8-8.6-8.6" style="fill:none; stroke:#ffa3af; stroke-miterlimit:10;"/><path d="M134.1,67.8c0,4.7-3.8,8.6-8.6,8.6s-8.6-3.8-8.6-8.6,3.8-8.6,8.6-8.6" style="fill:none; stroke:#ffa3af; stroke-miterlimit:10;"/><circle cx="90.9" cy="50.5" r="4.5" style="fill:#1b1256;"/><circle cx="142.5" cy="50.5" r="4.5" style="fill:#1b1256;"/><circle cx="75.8" cy="66.9" r="14.9" style="fill:#fb84ad; opacity:.2;"/><circle cx="156.8" cy="66.9" r="14.9" style="fill:#fb84ad; opacity:.2;"/><path d="M120,12.2c0,3.9-3.2,7.1-7.1,7.1s-7.1-3.2-7.1-7.1,3.2-7.1,7.1-7.1" style="fill:none; stroke:#ffc09f; stroke-miterlimit:10;"/><path d="M120.9,5.1c3.9,0,7.1,3.2,7.1,7.1s-3.2,7.1-7.1,7.1-7.1-3.2-7.1-7.1" style="fill:none; stroke:#ffc09f; stroke-miterlimit:10;"/><path d="M220.5,83.6c8,10.2,6.2,24.9-4,32.9-10.2,8-24.9,6.2-32.9-4" style="fill:none; stroke:#ffe7d9; stroke-miterlimit:10;"/><path d="M67.3,167.2c4.3-2.5,6.4-6.1,6.4-10.9s-.3-3-.8-4.4c-.5-1.4-1.3-2.7-2.2-3.8-1-1.1-2.1-2.1-3.3-2.9-1.5-.9-3.2-1.5-5-1.8-1.8-.3-3.9-.5-6.4-.5h-16.3c-2.4,0-4.1.6-5.3,1.7s-1.7,2.9-1.7,5.3v37.8c0,2.4.5,4.1,1.6,5.3,1.1,1.1,2.9,1.7,5.3,1.7h15.4c2.7,0,5.1-.1,7.1-.4,2-.3,3.9-.7,5.5-1.4,2.6-1.1,4.7-2.9,6.2-5.3,1.5-2.4,2.3-5.1,2.3-8,0-5.9-3-10.1-8.8-12.4ZM64.3,178.9c0,4.5-3.1,6.7-9.6,6.7h-10.2v-13.2h9.9c3.4,0,5.9.5,7.6,1.6,1.6,1,2.3,2.6,2.3,4.9ZM61.5,160.5c-.6,1.2-1.5,2-2.8,2.4-1.3.5-3.2.7-5.6.7h-8.6v-11.5h7.5c3.6,0,6.3.4,8,1.2,1.5.7,2.3,2.1,2.3,4.4s-.2,2-.8,2.9Z" style="fill:#ffc09f;"/><path d="M116.5,181.9c0-1.9,0-3.6,0-5.1,0-1.5,0-3.4,0-5.6,0-3.6-.5-6.5-1.5-8.7-1-2.3-2.9-4-5.4-5-2.4-1-5.8-1.5-10-1.5s-7,.5-9.5,1.6c-2.6,1.1-4.5,2.4-5.8,4.1-1.3,1.7-1.9,3.4-1.9,5.3s.5,2.3,1.4,3.2c.9.8,2,1.2,3.2,1.2s2.3-.3,2.9-.9c.4-.5,1-1.3,1.9-2.7.8-1.2,1.7-2.1,2.8-2.7,1.1-.6,2.8-.9,5-.9s4.2.5,4.9,1.4c.7.9,1.2,2.4,1.3,4.4-1.7.5-3.4.9-4.9,1.3-1.7.4-3.7.8-6,1.3-2.4.5-3.9.8-4.4.9-3,.6-5.4,2-7.1,3.9-1.7,1.9-2.6,4.3-2.6,7.1s.5,3.9,1.6,5.7c1,1.7,2.6,3.1,4.5,4.1,1.9,1,4.2,1.5,6.7,1.5s5.2-.5,7.4-1.4c2-.8,4-2,6.1-3.6.9,1.4,1.8,2.6,2.7,3.4,1.1,1,2.2,1.6,3.4,1.6s2.5-.5,3.6-1.4c1.1-.9,1.6-2,1.6-3.2s0-1.2-.9-3.9c-.6-1.8-.8-3.6-.8-5.3ZM105.9,177.1v.3c0,3.1-.4,5.3-1.2,6.6-.7,1.1-1.7,2.1-3.1,2.8-1.5.8-3.1,1.1-4.8,1.1s-2.8-.4-3.7-1.3c-.9-.9-1.4-1.9-1.4-3.1s.4-2,1.1-2.6c.8-.7,1.7-1.2,2.6-1.4,1-.3,2.8-.7,5.4-1.2,2.1-.5,3.8-.9,5.1-1.3Z" style="fill:#ffc09f;"/><path d="M153.8,158.4c-2.5-1.5-5.3-2.3-8.6-2.3s-5.2.5-7.2,1.5c-1.4.8-2.9,1.8-4.3,3.1v-12.5c0-1.9-.5-3.4-1.3-4.4-.9-1.1-2.2-1.7-3.9-1.7s-2.9.6-3.8,1.7c-.9,1.1-1.3,2.7-1.3,4.8v40.9c0,1.9.5,3.5,1.4,4.5.9,1.1,2.2,1.6,3.7,1.6s2.8-.5,3.8-1.6c.8-.9,1.3-2,1.4-3.5.5.5.9,1,1.3,1.3.7.6,1.5,1.2,2.4,1.8,1,.6,2.1,1.1,3.4,1.4,1.3.4,2.8.5,4.3.5,2.5,0,4.7-.5,6.8-1.5,2.1-1,3.8-2.4,5.3-4.2,1.4-1.8,2.5-4,3.3-6.4.7-2.4,1.1-5.1,1.1-8s-.7-7.4-2-10.3c-1.3-2.9-3.3-5.2-5.7-6.7ZM150.7,175.7c0,3.6-.8,6.4-2.4,8.3-1.6,1.9-3.4,2.8-5.5,2.8s-4.6-.9-6.1-2.7c-1.6-1.9-2.4-4.6-2.4-8.1s.4-4.5,1.1-6.3c.7-1.7,1.8-3,3-3.9,1.3-.9,2.7-1.3,4.3-1.3s2.9.4,4.1,1.3c1.2.9,2.1,2.2,2.8,3.8.7,1.7,1,3.7,1,6.1Z" style="fill:#ffc09f;"/><path d="M195.9,156c-1.6,0-2.9.6-3.9,1.6-1,1.1-1.5,2.7-1.5,4.7v11.4c0,5.4-.4,7.6-.7,8.4-.6,1.4-1.5,2.5-2.8,3.3-1.3.8-2.6,1.3-4,1.3s-2.6-.3-3.4-1.1c-.8-.7-1.4-1.8-1.7-3.1-.3-1.4-.5-3.2-.5-5.3v-15c0-2-.5-3.6-1.5-4.7-1-1.1-2.4-1.6-4-1.6s-2.9.6-3.9,1.6c-1,1.1-1.5,2.7-1.5,4.7v18.6c0,3.8.6,6.9,1.9,9,1.1,1.8,2.6,3.2,4.5,4.2,1.9,1,4.1,1.5,6.4,1.5s3.7-.2,5.2-.7c1.5-.5,3-1.3,4.3-2.3.8-.6,1.6-1.4,2.4-2.2.1,1.5.6,2.7,1.4,3.6,1,1.1,2.2,1.6,3.7,1.6s2.7-.5,3.7-1.6c.9-1,1.4-2.6,1.4-4.5v-27.2c0-2.1-.5-3.6-1.5-4.7-1-1.1-2.3-1.6-3.9-1.6Z" style="fill:#ffc09f;"/><path d="M221.9,146.1c-.6-1.3-1.4-2.3-2.4-3-1-.7-2.2-1-3.4-1-1.7,0-3.2.6-4.4,1.7-1.2,1.1-1.8,2.5-1.8,4.2s.6,3,1.8,4.2c1.1,1.1,2.3,1.7,3.7,1.8-.2.8-.5,1.5-.9,2.1-.6.8-1.5,1.5-2.6,2.1-1.2.6-1.8,1.6-1.8,2.9s.3,1.6.9,2.2c.6.6,1.4.9,2.3.9,1.3,0,2.7-.6,4.2-1.9,1.5-1.2,2.7-2.9,3.7-5,1-2.1,1.5-4.3,1.5-6.7s-.3-3.3-.8-4.5Z" style="fill:#ffc09f;"/></g></svg>