<?xml version="1.0" encoding="UTF-8"?><svg id="b" xmlns="http://www.w3.org/2000/svg" viewBox="0 0 97.1 27.4"><g id="c"><path d="M17.6,12.9c2.2-1.3,3.3-3.1,3.3-5.6s-.1-1.6-.4-2.3c-.3-.7-.6-1.4-1.1-2-.5-.6-1.1-1.1-1.7-1.5-.8-.5-1.6-.8-2.6-.9-.9-.2-2-.2-3.3-.2H3.5C2.3.4,1.4.7.9,1.3s-.9,1.5-.9,2.7v19.3c0,1.2.3,2.1.8,2.7.6.6,1.5.9,2.7.9h7.9c1.4,0,2.6,0,3.6-.2,1-.1,2-.4,2.8-.7,1.3-.6,2.4-1.5,3.2-2.7.8-1.2,1.2-2.6,1.2-4.1,0-3-1.5-5.1-4.5-6.3ZM16.1,18.8c0,2.3-1.6,3.4-4.9,3.4h-5.2v-6.7h5c1.7,0,3,.3,3.9.8.8.5,1.2,1.3,1.2,2.5ZM14.7,9.4c-.3.6-.8,1-1.4,1.2-.7.2-1.6.3-2.9.3h-4.4v-5.9h3.8c1.8,0,3.2.2,4.1.6.8.4,1.2,1.1,1.2,2.2s-.1,1-.4,1.5Z" fill="#405de1ff"/><path d="M42.8,20.3c0-1,0-1.8,0-2.6,0-.8,0-1.7,0-2.9,0-1.8-.3-3.3-.8-4.4-.5-1.2-1.5-2-2.8-2.6-1.2-.5-3-.8-5.1-.8s-3.6.3-4.9.8c-1.3.5-2.3,1.2-3,2.1-.6.9-1,1.8-1,2.7s.2,1.2.7,1.6c.5.4,1,.6,1.6.6s1.2-.2,1.5-.5c.2-.2.5-.7,1-1.4.4-.6.9-1.1,1.4-1.4.6-.3,1.4-.5,2.6-.5s2.1.2,2.5.7c.4.5.6,1.2.7,2.3-.9.3-1.7.5-2.5.7-.8.2-1.9.4-3.1.7-1.2.2-2,.4-2.3.5-1.5.3-2.7,1-3.6,2-.9,1-1.3,2.2-1.3,3.6s.3,2,.8,2.9c.5.9,1.3,1.6,2.3,2.1,1,.5,2.1.8,3.4.8s2.7-.2,3.8-.7c1-.4,2-1,3.1-1.8.5.7.9,1.3,1.4,1.7.6.5,1.1.8,1.7.8s1.3-.2,1.8-.7c.5-.5.8-1,.8-1.6s0-.6-.5-2c-.3-.9-.4-1.8-.4-2.7ZM37.4,17.9h0c0,1.7-.2,2.9-.6,3.5-.3.6-.9,1.1-1.6,1.5-.7.4-1.6.6-2.4.6s-1.4-.2-1.9-.7c-.5-.4-.7-1-.7-1.6s.2-1,.6-1.3c.4-.4.9-.6,1.3-.7.5-.1,1.4-.3,2.8-.6,1.1-.2,1.9-.4,2.6-.7Z" fill="#405de1ff"/><path d="M61.9,8.4c-1.3-.8-2.7-1.2-4.4-1.2s-2.7.3-3.7.8c-.7.4-1.5.9-2.2,1.6V3.1c0-1-.2-1.7-.7-2.3-.5-.6-1.1-.8-2-.8s-1.5.3-1.9.9c-.4.6-.7,1.4-.7,2.4v20.9c0,1,.2,1.8.7,2.3.5.5,1.1.8,1.9.8s1.4-.3,1.9-.8c.4-.4.7-1,.7-1.8.2.3.5.5.6.7.3.3.8.6,1.2.9.5.3,1.1.6,1.8.7.7.2,1.4.3,2.2.3,1.3,0,2.4-.3,3.5-.8,1-.5,2-1.2,2.7-2.2.7-.9,1.3-2,1.7-3.3.4-1.2.6-2.6.6-4.1s-.3-3.8-1-5.3c-.7-1.5-1.7-2.7-2.9-3.4ZM60.3,17.2c0,1.9-.4,3.3-1.2,4.3-.8,1-1.7,1.4-2.8,1.4s-2.3-.5-3.1-1.4c-.8-.9-1.2-2.3-1.2-4.1s.2-2.3.6-3.2c.4-.9.9-1.5,1.6-2,.6-.4,1.4-.7,2.2-.7s1.5.2,2.1.7c.6.5,1.1,1.1,1.4,1.9.3.9.5,1.9.5,3.1Z" fill="#405de1ff"/><path d="M83.4,7.1c-.8,0-1.5.3-2,.8-.5.6-.8,1.4-.8,2.4v5.8c0,2.8-.2,3.9-.4,4.3-.3.7-.8,1.3-1.4,1.7-.6.4-1.3.7-2.1.7s-1.3-.2-1.7-.5c-.4-.4-.7-.9-.9-1.6-.2-.7-.3-1.6-.3-2.7v-7.7c0-1-.3-1.9-.8-2.4-.5-.6-1.2-.8-2-.8s-1.5.3-2,.8c-.5.5-.7,1.4-.7,2.4v9.5c0,2,.3,3.5.9,4.6.5.9,1.3,1.6,2.3,2.1,1,.5,2.1.8,3.3.8s1.9-.1,2.7-.4c.8-.3,1.5-.6,2.2-1.2.4-.3.8-.7,1.2-1.1,0,.8.3,1.4.7,1.8.5.6,1.1.8,1.9.8s1.4-.3,1.9-.8c.5-.5.7-1.3.7-2.3v-13.9c0-1.1-.3-1.9-.7-2.4-.5-.6-1.2-.8-2-.8Z" fill="#405de1ff"/><path d="M96.7,2c-.3-.7-.7-1.2-1.2-1.5-.5-.4-1.1-.5-1.7-.5-.9,0-1.6.3-2.2.9-.6.6-.9,1.3-.9,2.2s.3,1.6.9,2.2c.6.6,1.2.9,1.9.9,0,.4-.2.8-.5,1.1-.3.4-.8.8-1.3,1.1-.6.3-.9.8-.9,1.5s.2.8.5,1.1c.3.3.7.5,1.2.5.7,0,1.4-.3,2.2-1,.7-.6,1.4-1.5,1.9-2.5.5-1.1.8-2.2.8-3.4s-.1-1.7-.4-2.3Z" fill="#405de1ff"/></g></svg>